<?xml version="1.0" standalone="no"?>
<!DOCTYPE svg PUBLIC "-//W3C//DTD SVG 20010904//EN"
 "http://www.w3.org/TR/2001/REC-SVG-20010904/DTD/svg10.dtd">
<svg version="1.0" xmlns="http://www.w3.org/2000/svg"
 width="500.000000pt" height="500.000000pt" viewBox="0 0 500.000000 500.000000"
 preserveAspectRatio="xMidYMid meet">

<g transform="translate(0.000000,500.000000) scale(0.100000,-0.100000)"
fill="#000000" stroke="none">
<path d="M3705 4174 c-77 -63 -163 -133 -192 -155 l-52 -41 -72 43 c-265 155
-578 239 -889 239 -847 0 -1579 -611 -1732 -1446 -28 -157 -31 -449 -5 -600
45 -267 142 -503 294 -722 97 -140 261 -314 364 -385 22 -16 21 -17 -117 -193
-77 -98 -143 -185 -148 -193 -5 -8 74 52 175 134 101 81 189 152 196 157 8 6
36 -4 85 -33 553 -323 1245 -320 1793 9 343 206 619 541 749 907 81 228 111
421 103 657 -12 383 -121 696 -348 1003 -70 95 -216 249 -299 314 l-49 39 125
163 c132 172 167 219 162 218 -2 0 -66 -52 -143 -115z m-925 -314 c134 -27
369 -111 370 -131 0 -4 -288 -240 -639 -525 l-640 -519 157 -6 c86 -4 195 -7
240 -8 46 0 82 -5 80 -10 -1 -5 -167 -178 -367 -385 -200 -207 -361 -379 -359
-382 3 -2 99 -9 214 -15 115 -6 209 -11 210 -12 5 -6 -359 -462 -370 -465 -15
-3 -130 98 -202 178 -415 461 -466 1169 -121 1686 133 201 358 396 561 489 75
34 224 84 311 104 148 34 389 35 555 1z m636 -313 c183 -165 300 -330 383
-539 64 -162 92 -314 92 -503 0 -381 -137 -713 -405 -981 -167 -166 -347 -276
-561 -343 -147 -46 -248 -61 -415 -61 -162 0 -272 15 -402 56 -95 30 -248 93
-248 103 0 3 288 238 639 521 351 283 638 516 637 517 0 0 -98 7 -216 13 -118
7 -228 15 -245 19 -29 6 -20 16 363 390 216 211 391 385 390 387 -2 1 -99 9
-217 18 -118 9 -216 17 -217 19 -5 4 337 447 345 447 4 0 39 -28 77 -63z"/>
<path d="M2033 3522 c-150 -108 -272 -199 -272 -202 -1 -3 3 -11 8 -18 6 -10
79 38 282 186 249 180 294 220 264 228 -5 2 -132 -86 -282 -194z"/>
<path d="M1675 2884 c-168 -121 -270 -202 -270 -212 0 -9 5 -16 11 -15 23 4
555 396 551 406 -2 6 -7 12 -13 14 -5 2 -130 -85 -279 -193z"/>
<path d="M3433 2182 c-149 -108 -274 -200 -278 -203 -3 -3 1 -11 8 -17 18 -16
569 381 560 403 -3 8 -8 15 -12 15 -3 0 -128 -89 -278 -198z"/>
<path d="M3051 1625 c-145 -106 -267 -197 -272 -202 -4 -4 -4 -14 0 -22 7 -11
72 32 285 185 250 181 296 221 261 230 -5 1 -129 -85 -274 -191z"/>
<path d="M2243 550 c-102 -24 -123 -120 -32 -146 40 -12 58 -37 43 -61 -15
-25 -37 -22 -49 5 -8 18 -17 22 -40 20 -24 -2 -31 -8 -33 -29 -4 -30 15 -39
88 -39 60 0 112 27 121 63 13 48 -4 73 -60 92 -52 17 -65 37 -39 63 19 19 37
14 44 -13 5 -19 13 -25 35 -25 16 0 29 3 29 8 0 4 3 17 6 29 5 18 0 23 -33 32
-21 6 -40 10 -43 10 -3 -1 -20 -4 -37 -9z"/>
<path d="M3175 553 c-81 -18 -117 -64 -119 -150 0 -48 3 -58 27 -79 16 -13 33
-24 40 -24 7 -1 21 -15 32 -32 25 -40 34 -42 65 -18 25 19 25 19 5 34 -11 8
-18 16 -15 18 3 2 14 8 24 14 52 28 82 112 65 176 -5 21 -17 42 -27 47 -24 12
-73 20 -97 14z m43 -87 c-9 -106 -67 -191 -76 -112 -9 74 29 176 64 176 14 0
16 -9 12 -64z"/>
<path d="M1718 425 l-25 -125 42 0 43 0 7 46 c10 69 14 74 51 74 24 0 34 5 34
15 0 10 -10 15 -30 15 -33 0 -37 11 -20 54 8 22 16 26 50 26 22 0 40 5 40 10
0 6 -34 10 -83 10 l-83 0 -26 -125z"/>
<path d="M1930 433 c-29 -65 -55 -121 -57 -125 -2 -5 2 -8 10 -8 8 0 24 16 36
35 17 30 26 35 56 35 33 0 35 -2 35 -35 0 -35 0 -35 46 -35 l47 0 -7 68 c-3
37 -9 93 -12 125 l-7 57 -46 0 -47 0 -54 -117z m73 5 c4 -47 4 -48 -24 -48
-16 0 -29 4 -29 10 0 14 44 103 46 93 1 -4 4 -29 7 -55z"/>
<path d="M2395 540 c-4 -6 7 -10 24 -10 37 0 38 -3 11 -124 -11 -50 -20 -94
-20 -98 0 -4 18 -8 39 -8 l40 0 15 73 c9 39 20 90 24 112 7 35 12 40 37 43 17
2 34 8 40 13 5 5 -32 9 -97 9 -61 0 -110 -4 -113 -10z"/>
<path d="M2635 538 c-8 -26 -45 -209 -45 -223 0 -11 11 -15 39 -15 38 0 39 1
46 43 12 73 21 76 41 14 l18 -57 43 0 43 0 -21 52 c-11 29 -21 55 -22 58 -1 3
11 17 26 32 33 33 35 71 5 92 -28 20 -167 23 -173 4z m118 -48 c-1 -32 -23
-60 -46 -60 -9 0 -2 74 9 92 3 5 13 8 22 6 12 -3 17 -13 15 -38z"/>
<path d="M2885 528 c-15 -70 -45 -213 -45 -220 0 -4 36 -8 79 -8 61 0 80 3 85
15 4 12 -3 15 -34 15 -43 0 -45 4 -34 59 6 27 11 31 40 31 18 0 36 5 39 10 4
6 -6 10 -24 10 -38 0 -43 8 -30 53 9 35 12 37 49 37 22 0 40 5 40 10 0 6 -33
10 -80 10 -74 0 -80 -1 -85 -22z"/>
</g>
</svg>
